<svg width="20" height="18" viewBox="0 0 20 18" fill="none" xmlns="http://www.w3.org/2000/svg">
<path d="M18.125 3.6H15V1.8C15 0.80625 14.1602 0 13.125 0H6.875C5.83984 0 5 0.80625 5 1.8V3.6H1.875C0.839844 3.6 0 4.40625 0 5.4V16.2C0 17.1938 0.839844 18 1.875 18H18.125C19.1602 18 20 17.1938 20 16.2V5.4C20 4.40625 19.1602 3.6 18.125 3.6ZM7.5 2.4H12.5V3.6H7.5V2.4ZM13.75 11.7C13.75 11.865 13.6094 12 13.4375 12H11.25V14.1C11.25 14.265 11.1094 14.4 10.9375 14.4H9.0625C8.89063 14.4 8.75 14.265 8.75 14.1V12H6.5625C6.39063 12 6.25 11.865 6.25 11.7V9.9C6.25 9.735 6.39063 9.6 6.5625 9.6H8.75V7.5C8.75 7.335 8.89063 7.2 9.0625 7.2H10.9375C11.1094 7.2 11.25 7.335 11.25 7.5V9.6H13.4375C13.6094 9.6 13.75 9.735 13.75 9.9V11.7Z" fill="#00B09B"/>
</svg>
