<svg width="26" height="20" viewBox="0 0 26 20" fill="none" xmlns="http://www.w3.org/2000/svg">
<path d="M24.6586 3.76953L17.0531 0C16.268 1.08594 14.5297 1.84375 12.5024 1.84375C10.475 1.84375 8.73673 1.08594 7.95157 0L0.346103 3.76953C0.0375091 3.92578 -0.0874908 4.30078 0.0648529 4.60938L2.29923 9.08203C2.45548 9.39062 2.83048 9.51562 3.13907 9.36328L5.35001 8.28125C5.76407 8.07812 6.24845 8.37891 6.24845 8.84375V18.75C6.24845 19.4414 6.80704 20 7.49845 20H17.4984C18.1899 20 18.7484 19.4414 18.7484 18.75V8.83984C18.7484 8.37891 19.2328 8.07422 19.6469 8.27734L21.8578 9.35938C22.1664 9.51562 22.5414 9.39062 22.6977 9.07812L24.9359 4.60938C25.0922 4.30078 24.9672 3.92188 24.6586 3.76953Z" fill="#00B09B"/>
</svg>
